<?xml version="1.0" encoding="UTF-8" standalone="no"?>
<!-- Created with Inkscape (http://www.inkscape.org/) -->

<svg
   width="3.1605444mm"
   height="3.1605444mm"
   viewBox="0 0 3.511716 3.511716"
   version="1.1"
   id="svg1"
   sodipodi:docname="help.svg"
   inkscape:version="1.4 (e7c3feb100, 2024-10-09)"
   xmlns:inkscape="http://www.inkscape.org/namespaces/inkscape"
   xmlns:sodipodi="http://sodipodi.sourceforge.net/DTD/sodipodi-0.dtd"
   xmlns="http://www.w3.org/2000/svg"
   xmlns:svg="http://www.w3.org/2000/svg">
  <sodipodi:namedview
     id="namedview1"
     pagecolor="#000000"
     bordercolor="#000000"
     borderopacity="0.25"
     inkscape:showpageshadow="2"
     inkscape:pageopacity="0.0"
     inkscape:pagecheckerboard="0"
     inkscape:deskcolor="#d1d1d1"
     inkscape:document-units="mm"
     inkscape:zoom="18.420821"
     inkscape:cx="10.612991"
     inkscape:cy="10.1787"
     inkscape:window-width="1536"
     inkscape:window-height="888"
     inkscape:window-x="0"
     inkscape:window-y="0"
     inkscape:window-maximized="1"
     inkscape:current-layer="layer1" />
  <defs
     id="defs1" />
  <g
     inkscape:label="Layer 1"
     inkscape:groupmode="layer"
     id="layer1"
     transform="translate(-73.508874,-164.39099)">
    <path
       d="m 75.041943,166.55024 q 0,-0.12065 0.02222,-0.20638 0.0254,-0.0889 0.08255,-0.16827 0.06032,-0.0794 0.161925,-0.1651 0.123825,-0.10478 0.1905,-0.17463 0.06985,-0.0699 0.09842,-0.13652 0.02858,-0.0667 0.02858,-0.16193 0,-0.1524 -0.09843,-0.23495 -0.09842,-0.0825 -0.28575,-0.0825 -0.155575,0 -0.276225,0.0413 -0.12065,0.0381 -0.231775,0.0921 l -0.09843,-0.22225 q 0.127,-0.0667 0.2794,-0.11112 0.155575,-0.0445 0.346075,-0.0445 0.301625,0 0.466725,0.14922 0.1651,0.14923 0.1651,0.4064 0,0.14288 -0.04762,0.24448 -0.04445,0.0984 -0.130175,0.18415 -0.08255,0.0825 -0.19685,0.1778 -0.104775,0.0889 -0.161925,0.15557 -0.05397,0.0667 -0.07303,0.13335 -0.01905,0.0635 -0.01905,0.15558 v 0.054 h -0.22225 z m -0.07303,0.55245 q 0,-0.11748 0.05397,-0.1651 0.05715,-0.0476 0.142875,-0.0476 0.07937,0 0.136525,0.0476 0.05715,0.0476 0.05715,0.1651 0,0.1143 -0.05715,0.1651 -0.05715,0.0508 -0.136525,0.0508 -0.08572,0 -0.142875,-0.0508 -0.05397,-0.0508 -0.05397,-0.1651 z"
       id="text2"
       style="font-size:3.175px;fill:#ffffff;fill-opacity:1;stroke:#ffffff;stroke-width:0.166667;stroke-linejoin:round;stroke-dasharray:none;paint-order:stroke markers fill;stroke-opacity:1"
       aria-label="?" />
    <text
       xml:space="preserve"
       style="font-size:3.175px;text-align:start;writing-mode:lr-tb;direction:ltr;text-anchor:start;fill:#1a1a1a;fill-opacity:0;stroke:#000000;stroke-width:0.1;stroke-linejoin:round;stroke-dasharray:none;stroke-dashoffset:0;stroke-opacity:1;paint-order:stroke markers fill"
       x="74.010841"
       y="162.91534"
       id="text3"><tspan
         sodipodi:role="line"
         id="tspan3"
         style="stroke-width:0.1"
         x="74.010841"
         y="162.91534"></tspan></text>
    <circle
       style="fill:#1a1a1a;fill-opacity:0;stroke:#ffffff;stroke-width:0.222222;stroke-linejoin:round;stroke-dasharray:none;stroke-dashoffset:0;stroke-opacity:1;paint-order:stroke markers fill"
       id="path3"
       cx="75.264732"
       cy="166.14685"
       r="1.6447468" />
  </g>
</svg>
